<?xml version="1.0" encoding="UTF-8"?>
<svg width="44px" height="44px" viewBox="0 0 44 44" version="1.1" xmlns="http://www.w3.org/2000/svg" xmlns:xlink="http://www.w3.org/1999/xlink">
    <!-- Generator: Sketch 60.1 (88133) - https://sketch.com -->
    <title>ic_add_red</title>
    <desc>Created with Sketch.</desc>
    <g id="ic_add_red" stroke="none" stroke-width="1" fill="none" fill-rule="evenodd">
        <g id="编组-2">
            <circle id="椭圆形" cx="22" cy="22" r="22"></circle>
            <path d="M22,12 C22.5522847,12 23,12.4477153 23,13 L23,21 L31,21 C31.5522847,21 32,21.4477153 32,22 C32,22.5522847 31.5522847,23 31,23 L23,23 L23,31 C23,31.5522847 22.5522847,32 22,32 C21.4477153,32 21,31.5522847 21,31 L21,23 L13,23 C12.4477153,23 12,22.5522847 12,22 C12,21.4477153 12.4477153,21 13,21 L21,21 L21,13 C21,12.4477153 21.4477153,12 22,12 Z" id="形状结合" fill="#FFFFFF"></path>
        </g>
    </g>
</svg>